# xmcd
#
# Track frame offsets:
#	150
#	15810
#	33666
#	50917
#	69375
#	79544
#	97141
#	111386
#	128093
#	147422
#	161762
#
# Disc length: 2385 seconds
#
# Revision: 0
# Processed by: cddbd v1.5.1PL0 Copyright (c) Steve Scherf et al.
# Submitted via: audiograbber 1.83.01
#
DISCID=96094f0b
DTITLE=Raye, Collin - I Think About You - Raye, Collin - I Think About You
DYEAR=1995
DGENRE=Country
TTITLE0=I Think About You
TTITLE1=Not That Different
TTITLE2=On The Verge
TTITLE3=One Boy, One Girl
TTITLE4=Sweet Miss Behavin'
TTITLE5=Heart Full of Rain
TTITLE6=What If Jesus Comes Back Like That
TTITLE7=The Time Machine
TTITLE8=I Love Being Wrong
TTITLE9=I Volunteer
TTITLE10=Love Remains
EXTD=
EXTT0=
EXTT1=
EXTT2=
EXTT3=
EXTT4=
EXTT5=
EXTT6=
EXTT7=
EXTT8=
EXTT9=
EXTT10=
PLAYORDER=
